<?xml version="1.0" encoding="UTF-8" standalone="no"?>
<!-- Created with weather -->
<svg xmlns="http://www.w3.org/2000/svg" xmlns:xlink="http://www.w3.org/1999/xlink" shape-rendering="geometricPrecision" text-rendering="geometricPrecision" viewBox="0 0 64 64" style="white-space: pre;">
    <path id="_a0" fill="none" stroke="#FFCE55" stroke-width="3.2903" stroke-linecap="round" stroke-linejoin="round" stroke-miterlimit="10" d="M6.2,28.1L7.9,26.3" transform="translate(14.9,14.9)"/>
    <path id="_a1" fill="none" stroke="#FFCE55" stroke-width="3.2903" stroke-linecap="round" stroke-linejoin="round" stroke-miterlimit="10" d="M26.3,7.9L28.1,6.2" transform="translate(14.9,14.9)"/>
    <path id="_a2" fill="none" stroke="#FFCE55" stroke-width="3.2903" stroke-linecap="round" stroke-linejoin="round" stroke-miterlimit="10" d="M6.2,6.2L7.9,7.9" transform="translate(14.9,14.9)"/>
    <path id="_a3" fill="none" stroke="#FFCE55" stroke-width="3.2903" stroke-linecap="round" stroke-linejoin="round" stroke-miterlimit="10" d="M26.3,26.3L28.1,28.1" transform="translate(14.9,14.9)"/>
    <path id="_a4" fill="none" stroke="#FFCE55" stroke-width="3.2903" stroke-linecap="round" stroke-linejoin="round" stroke-miterlimit="10" d="M17.1,32.6L17.1,30.1" transform="translate(14.9,14.9)"/>
    <path id="_a5" fill="none" stroke="#FFCE55" stroke-width="3.2903" stroke-linecap="round" stroke-linejoin="round" stroke-miterlimit="10" d="M17.1,4.1L17.1,1.6" transform="translate(14.9,14.9)"/>
    <path id="_a6" fill="none" stroke="#FFCE55" stroke-width="3.2903" stroke-linecap="round" stroke-linejoin="round" stroke-miterlimit="10" d="M1.6,17.1L4.1,17.1" transform="translate(14.9,14.9)"/>
    <path id="_a7" fill="none" stroke="#FFCE55" stroke-width="3.2903" stroke-linecap="round" stroke-linejoin="round" stroke-miterlimit="10" d="M30.1,17.1L32.6,17.1" transform="translate(14.9,14.9)"/>
    <g transform="translate(14.9,14.9)">
        <ellipse fill="#FFCE55" rx="8.7" ry="8.7" transform="translate(0,0) translate(17.1,17.1)"/>
    </g>
    <g id="_a8" transform="translate(32,32) translate(-17.1,-17.1)">
        <ellipse fill="#FFAF57" rx="5.7" ry="5.7" transform="translate(0,0) translate(17.1,17.1)"/>
    </g>
    </svg>
