<?xml version="1.0" encoding="UTF-8" standalone="no"?>
<!-- Created with Keyshape -->
<svg xmlns="http://www.w3.org/2000/svg" xmlns:xlink="http://www.w3.org/1999/xlink" shape-rendering="geometricPrecision" text-rendering="geometricPrecision" viewBox="0 0 64 64" style="white-space: pre;">
    <g transform="translate(32,27.8455) translate(-20.4509,-16)">
        <path id="_a0" fill="#99a3aa" d="M32.1,14.2C32.1,14.2,32,14.2,32,14.2C31.1,6.2,24.3,0,16,0C7.2,0,0,7.2,0,16C0,24.8,7.2,32,16,32L32,32C36.9,32,40.9,28,40.9,23.1C41,18.2,37,14.2,32.1,14.2Z" transform="translate(20.4509,16) translate(0,0) translate(-20.4509,-16)"/>
    </g>
    <g transform="translate(34.1399,51.0384) translate(-11.7399,-4.112)">
        <g transform="translate(0.769228,1.51026) translate(-0.730772,-1.51026)">
            <path id="_a1" fill="none" stroke="#51F4EB" stroke-width="3.6559" stroke-linecap="round" stroke-linejoin="round" stroke-miterlimit="10" d="M3.3,1.8L3.3,1.8" opacity="0" transform="translate(-1.83846,-1.8)"/>
        </g>
        <g transform="translate(10.9808,1.51026) translate(-0.730772,-1.51026)">
            <path id="_a2" fill="none" stroke="#51F4EB" stroke-width="3.6559" stroke-linecap="round" stroke-linejoin="round" stroke-miterlimit="10" d="M3.3,1.8L3.3,1.8" opacity="0" transform="translate(-1.83846,-1.8)"/>
        </g>
        <g transform="translate(21.2491,1.51026) translate(-0.730772,-1.51026)">
            <path id="_a3" fill="none" stroke="#51F4EB" stroke-width="3.6559" stroke-linecap="round" stroke-linejoin="round" stroke-miterlimit="10" d="M3.3,1.8L3.3,1.8" opacity="0" transform="translate(-1.83846,-1.8)"/>
        </g>
        <g transform="translate(4.51343,9.73426) translate(-0.730772,-1.51026)">
            <path id="_a4" fill="none" stroke="#51F4EB" stroke-width="3.6559" stroke-linecap="round" stroke-linejoin="round" stroke-miterlimit="10" d="M3.3,1.8L3.3,1.8" opacity="0" transform="translate(-1.83846,-1.8)"/>
        </g>
        <g transform="translate(14.725,9.73426) translate(-0.730772,-1.51026)">
            <path id="_a5" fill="none" stroke="#51F4EB" stroke-width="3.6559" stroke-linecap="round" stroke-linejoin="round" stroke-miterlimit="10" d="M3.3,1.8L3.3,1.8" opacity="0" transform="translate(-1.83846,-1.8)"/>
        </g>
    </g>
    
</svg>
