<?xml version="1.0" encoding="UTF-8" standalone="no"?>
<!-- Created with Keyshape -->
<svg xmlns="http://www.w3.org/2000/svg" shape-rendering="geometricPrecision" text-rendering="geometricPrecision" viewBox="0 0 64 64" style="white-space: pre;">
    <g transform="translate(32,27.8455) translate(-20.4509,-16)">
        <path id="_a0" fill="#99a3aa" d="M32.1,14.2C32.1,14.2,32,14.2,32,14.2C31.1,6.2,24.3,0,16,0C7.2,0,0,7.2,0,16C0,24.8,7.2,32,16,32L32,32C36.9,32,40.9,28,40.9,23.1C41,18.2,37,14.2,32.1,14.2Z" transform="translate(20.4509,16) translate(0,0) translate(-20.4509,-16)"/>
    </g>
    <g transform="translate(23.1692,50.8367) translate(-0.730772,-1.51026)"/>
    <g transform="translate(33.3808,50.8367) translate(-0.730772,-1.51026)"/>
    <g transform="translate(43.6491,50.8367) translate(-0.730772,-1.51026)"/>
    <g transform="translate(24.4611,50.66) translate(-2.5,-2.5)">
        <ellipse id="_a1" fill="#EBF2F2" rx="2.5" ry="2.5" opacity="0" transform="translate(0.477342,-1.81451) translate(0,0) translate(0,0)"/>
    </g>
    <g transform="translate(35.3842,50.66) translate(-2.5,-2.5)">
        <ellipse id="_a2" fill="#EBF2F2" rx="2.5" ry="2.5" opacity="0" transform="translate(0.477342,-1.81451) translate(0,0) translate(0,0)"/>
    </g>
    <g transform="translate(46.5493,58.3785) translate(-2.5,-2.5)">
        <ellipse id="_a3" fill="#EBF2F2" rx="2.5" ry="2.5" opacity="0" transform="translate(2.1208,-9.53299) translate(0,0) translate(0,0)"/>
    </g>
    <g transform="translate(43.6491,54.1825) translate(-2.5,-2.5)">
        <ellipse id="_a4" fill="#EBF2F2" rx="2.5" ry="2.5" opacity="0" transform="translate(2.27801,-5.337) translate(0,0) translate(0,0)"/>
    </g>
    <g transform="translate(21.1736,52.5679) translate(-2.5,-2.5)">
        <ellipse id="_a5" fill="#EBF2F2" rx="2.5" ry="2.5" opacity="0" transform="translate(1.13375,-3.72242) translate(0,0) translate(0,0)"/>
    </g>
    </svg>
