<?xml version="1.0" encoding="UTF-8" standalone="no"?>
<!-- Created with Keyshape -->
<svg xmlns="http://www.w3.org/2000/svg" xmlns:xlink="http://www.w3.org/1999/xlink" shape-rendering="geometricPrecision" text-rendering="geometricPrecision" viewBox="0 0 64 64" style="white-space: pre;">
    <g transform="translate(32,27.8455) translate(-20.4509,-16)">
        <path id="_a0" fill="#99a3aa" d="M32.1,14.2C32.1,14.2,32,14.2,32,14.2C31.1,6.2,24.3,0,16,0C7.2,0,0,7.2,0,16C0,24.8,7.2,32,16,32L32,32C36.9,32,40.9,28,40.9,23.1C41,18.2,37,14.2,32.1,14.2Z" transform="translate(20.4509,16) translate(0,0) translate(-20.4509,-16)"/>
    </g>
    <g transform="translate(23.1692,50.8367) translate(-0.730772,-1.51026)"/>
    <g transform="translate(33.3808,50.8367) translate(-0.730772,-1.51026)"/>
    <g transform="translate(43.6491,50.8367) translate(-0.730772,-1.51026)"/>
    <g transform="translate(22.4384,46.3455) translate(-2.5,-2.5)">
        <ellipse id="_a1" fill="#EBF2F2" rx="2.5" ry="2.5" opacity="0" transform="translate(2.5,2.5) translate(0,0) translate(0,0)"/>
    </g>
    <g transform="translate(34.4186,46.3455) translate(-2.5,-2.5)">
        <ellipse id="_a2" fill="#EBF2F2" rx="2.5" ry="2.5" opacity="0" transform="translate(2.5,2.5) translate(0,0) translate(0,0)"/>
    </g>
    <g transform="translate(45.8271,46.3455) translate(-2.5,-2.5)">
        <ellipse id="_a3" fill="#EBF2F2" rx="2.5" ry="2.5" opacity="0" transform="translate(2.5,2.5) translate(0,0) translate(0,0)"/>
    </g>
    <g transform="translate(35.3842,50.66) translate(-2.5,-2.5)"/>
    <g transform="translate(45.4599,50.66) translate(-2.5,-2.5)"/>
    <g transform="translate(23.1692,50.8367) translate(-0.730772,-1.51026)">
        <path id="_a4" fill="none" stroke="#51F4EB" stroke-width="3.6559" stroke-linecap="round" stroke-linejoin="round" stroke-miterlimit="10" d="M3.3,1.8L3.3,1.8" opacity="0" transform="translate(6.9116,-1.8)"/>
    </g>
    <g transform="translate(44.2065,57.8367) translate(-0.730772,-1.51026)">
        <path id="_a5" fill="none" stroke="#51F4EB" stroke-width="3.6559" stroke-linecap="round" stroke-linejoin="round" stroke-miterlimit="10" d="M3.3,1.8L3.3,1.8" opacity="0" transform="translate(-1.83846,-1.8)"/>
        <g transform="translate(-20.3065,-5.48974) translate(-0.730772,-1.51026)">
            <path id="_a6" fill="none" stroke="#51F4EB" stroke-width="3.6559" stroke-linecap="round" stroke-linejoin="round" stroke-miterlimit="10" d="M3.3,1.8L3.3,1.8" opacity="0" transform="translate(-1.83846,-1.8)"/>
        </g>
    </g>
    </svg>
