<?xml version="1.0" encoding="UTF-8" standalone="no"?>
<svg xmlns="http://www.w3.org/2000/svg" shape-rendering="geometricPrecision" text-rendering="geometricPrecision" viewBox="0 0 64 64" style="white-space: pre;">
    <path id="_a0" fill="none" stroke="#EBF2F2" stroke-width="4.6286" stroke-linecap="round" stroke-linejoin="round" stroke-miterlimit="10" d="M11.5,8.1L17.3,2.3L23,8.1" opacity="0" transform="translate(31.7,12.55) translate(0,0) rotate(180) translate(-17.25,-5.2)"/>
    <g id="_a1" opacity="0" transform="translate(32,27.25) translate(0,0) translate(-14.7,-14.7)">
        <g>
            <ellipse fill="#FFCE55" rx="8.7" ry="8.7" transform="translate(0,0) translate(14.7,14.7)"/>
        </g>
        <g id="_a2" transform="translate(14.7,14.7) translate(-14.7,-14.7)">
            <ellipse fill="#FFAF57" rx="5.7" ry="5.7" transform="translate(0,0) translate(14.7,14.7)"/>
        </g>
        <g id="_a3" opacity="1" transform="translate(14.7,14.7) translate(-14.7,-14.7)">
            <ellipse fill="#FFCE55" rx="1.7" ry="1.7" transform="translate(0,0) translate(14.7,1.7)"/>
            <ellipse fill="#FFCE55" rx="1.7" ry="1.7" transform="translate(0,0) translate(14.7,27.7)"/>
            <ellipse fill="#FFCE55" rx="1.7" ry="1.7" transform="translate(0,0) translate(1.7,14.7)"/>
            <ellipse fill="#FFCE55" rx="1.7" ry="1.7" transform="translate(0,0) translate(27.7,14.7)"/>
            <ellipse fill="#FFCE55" rx="1.7" ry="1.7" transform="translate(0,0) translate(5.5,5.5)"/>
            <ellipse fill="#FFCE55" rx="1.7" ry="1.7" transform="translate(0,0) translate(23.9,23.9)"/>
            <ellipse fill="#FFCE55" rx="1.7" ry="1.7" transform="translate(0,0) translate(5.5,23.9)"/>
            <ellipse fill="#FFCE55" rx="1.7" ry="1.7" transform="translate(0,0) translate(23.9,5.5)"/>
        </g>
    </g>
    </svg>
