<?xml version="1.0" encoding="UTF-8" standalone="no"?>
<svg xmlns="http://www.w3.org/2000/svg" shape-rendering="geometricPrecision" text-rendering="geometricPrecision" viewBox="0 0 64 64" style="white-space: pre;">
    <g transform="translate(32,27.8455) translate(-20.4509,-16)">
        <path id="_a0" fill="#99a3aa" d="M32.1,14.2C32.1,14.2,32,14.2,32,14.2C31.1,6.2,24.3,0,16,0C7.2,0,0,7.2,0,16C0,24.8,7.2,32,16,32L32,32C36.9,32,40.9,28,40.9,23.1C41,18.2,37,14.2,32.1,14.2Z" transform="translate(20.4509,16) translate(0,0) translate(-20.4509,-16)"/>
    </g>
    <g transform="translate(23.1692,54.3866) translate(-0.730772,-1.51026)">
        <path id="_a1" fill="none" stroke="#51F4EB" stroke-width="3.6559" stroke-linecap="round" stroke-linejoin="round" stroke-miterlimit="10" d="M3.3,1.8L3.3,1.8" opacity="0" transform="translate(-1.83846,-1.8)"/>
    </g>
    <g transform="translate(33.3808,54.3866) translate(-0.730772,-1.51026)">
        <path id="_a2" fill="none" stroke="#51F4EB" stroke-width="3.6559" stroke-linecap="round" stroke-linejoin="round" stroke-miterlimit="10" d="M3.3,1.8L3.3,1.8" opacity="0" transform="translate(-1.83846,-1.8)"/>
    </g>
    <g id="_a3" opacity="0" transform="translate(42.8799,44.7739) translate(0,0) translate(-13.75,-2.35)">
        <path id="_a4" fill="none" stroke="#EBF2F2" stroke-width="4.6286" stroke-linecap="round" stroke-linejoin="round" stroke-miterlimit="10" d="M29.8,7L26.9,7" stroke-dashoffset="3" stroke-dasharray="3" transform="translate(-2.3,-2.3)"/>
        <path id="_a5" fill="none" stroke="#EBF2F2" stroke-width="4.6286" stroke-linecap="round" stroke-linejoin="round" stroke-miterlimit="10" d="M2.3,2.3C2.3,4.9,4.4,7,7,7L18.4,7" stroke-dashoffset="0" stroke-dasharray="19" transform="translate(-2.3,-2.3)"/>
    </g>
    <path id="_a6" fill="#FFCE55" d="M23.4914,39.5331L29.4725,31.8271L29.4725,35.694L32.9221,35.694L26.9411,43.4L26.9411,39.5331Z" opacity="1" transform="translate(16.7637,18.7239)"/>
    </svg>
