<?xml version="1.0" encoding="UTF-8" standalone="no"?>
<svg xmlns="http://www.w3.org/2000/svg" shape-rendering="geometricPrecision" text-rendering="geometricPrecision" viewBox="0 0 64 64" style="white-space: pre;">
    <g id="_a0" opacity="0.5" transform="translate(32,32) scale(0.8,0.8) translate(-19.5332,-15.8208)">
        <g transform="translate(13.6832,7.9) translate(-5.85,-7.9)">
            <path fill="none" stroke="#EBF2F2" stroke-width="4.6286" stroke-linecap="round" stroke-linejoin="round" stroke-miterlimit="10" d="M14,18.1L8.3,8.3" stroke-dashoffset="0" stroke-dasharray="12" transform="translate(-2.3,-2.3)"/>
            <path fill="none" stroke="#EBF2F2" stroke-width="4.6286" stroke-linecap="round" stroke-linejoin="round" stroke-miterlimit="10" d="M8.3,8.3L2.3,6.7" stroke-dasharray="7" stroke-dashoffset="0" transform="translate(-2.3,-2.3)"/>
            <path fill="none" stroke="#EBF2F2" stroke-width="4.6286" stroke-linecap="round" stroke-linejoin="round" stroke-miterlimit="10" d="M9.9,2.3L8.3,8.3" stroke-dashoffset="0" stroke-dasharray="7" transform="translate(-2.3,-2.3)"/>
        </g>
        <g transform="translate(9.7666,16.8954) rotate(-60) translate(-5.85,-7.9)">
            <path fill="none" stroke="#EBF2F2" stroke-width="4.6286" stroke-linecap="round" stroke-linejoin="round" stroke-miterlimit="10" d="M14,18.1L8.3,8.3" stroke-dashoffset="0" stroke-dasharray="12" transform="translate(-2.3,-2.3)"/>
            <path fill="none" stroke="#EBF2F2" stroke-width="4.6286" stroke-linecap="round" stroke-linejoin="round" stroke-miterlimit="10" d="M8.3,8.3L2.3,6.7" stroke-dasharray="7" stroke-dashoffset="0" transform="translate(-2.3,-2.3)"/>
            <path fill="none" stroke="#EBF2F2" stroke-width="4.6286" stroke-linecap="round" stroke-linejoin="round" stroke-miterlimit="10" d="M9.9,2.3L8.3,8.3" stroke-dashoffset="0" stroke-dasharray="7" transform="translate(-2.3,-2.3)"/>
        </g>
        <g transform="translate(25.3832,7.9) scale(-1,1) translate(-5.85,-7.9)">
            <path fill="none" stroke="#EBF2F2" stroke-width="4.6286" stroke-linecap="round" stroke-linejoin="round" stroke-miterlimit="10" d="M14,18.1L8.3,8.3" stroke-dashoffset="0" stroke-dasharray="12" transform="translate(-2.3,-2.3)"/>
            <path fill="none" stroke="#EBF2F2" stroke-width="4.6286" stroke-linecap="round" stroke-linejoin="round" stroke-miterlimit="10" d="M8.3,8.3L2.3,6.7" stroke-dasharray="7" stroke-dashoffset="0" transform="translate(-2.3,-2.3)"/>
            <path fill="none" stroke="#EBF2F2" stroke-width="4.6286" stroke-linecap="round" stroke-linejoin="round" stroke-miterlimit="10" d="M9.9,2.3L8.3,8.3" stroke-dashoffset="0" stroke-dasharray="7" transform="translate(-2.3,-2.3)"/>
        </g>
        <g transform="translate(13.6832,23.7416) scale(1,-1) translate(-5.85,-7.9)">
            <path fill="none" stroke="#EBF2F2" stroke-width="4.6286" stroke-linecap="round" stroke-linejoin="round" stroke-miterlimit="10" d="M14,18.1L8.3,8.3" stroke-dashoffset="0" stroke-dasharray="12" transform="translate(-2.3,-2.3)"/>
            <path fill="none" stroke="#EBF2F2" stroke-width="4.6286" stroke-linecap="round" stroke-linejoin="round" stroke-miterlimit="10" d="M8.3,8.3L2.3,6.7" stroke-dasharray="7" stroke-dashoffset="0" transform="translate(-2.3,-2.3)"/>
            <path fill="none" stroke="#EBF2F2" stroke-width="4.6286" stroke-linecap="round" stroke-linejoin="round" stroke-miterlimit="10" d="M9.9,2.3L8.3,8.3" stroke-dashoffset="0" stroke-dasharray="7" transform="translate(-2.3,-2.3)"/>
        </g>
        <g transform="translate(25.3832,23.7416) scale(-1,-1) translate(-5.85,-7.9)">
            <path fill="none" stroke="#EBF2F2" stroke-width="4.6286" stroke-linecap="round" stroke-linejoin="round" stroke-miterlimit="10" d="M14,18.1L8.3,8.3" stroke-dashoffset="0" stroke-dasharray="12" transform="translate(-2.3,-2.3)"/>
            <path fill="none" stroke="#EBF2F2" stroke-width="4.6286" stroke-linecap="round" stroke-linejoin="round" stroke-miterlimit="10" d="M8.3,8.3L2.3,6.7" stroke-dasharray="7" stroke-dashoffset="0" transform="translate(-2.3,-2.3)"/>
            <path fill="none" stroke="#EBF2F2" stroke-width="4.6286" stroke-linecap="round" stroke-linejoin="round" stroke-miterlimit="10" d="M9.9,2.3L8.3,8.3" stroke-dashoffset="0" stroke-dasharray="7" transform="translate(-2.3,-2.3)"/>
        </g>
        <g transform="translate(29.2998,16.8746) rotate(60) scale(-1,1) translate(-5.85,-7.9)">
            <path fill="none" stroke="#EBF2F2" stroke-width="4.6286" stroke-linecap="round" stroke-linejoin="round" stroke-miterlimit="10" d="M14,18.1L8.3,8.3" stroke-dashoffset="0" stroke-dasharray="12" transform="translate(-2.3,-2.3)"/>
            <path fill="none" stroke="#EBF2F2" stroke-width="4.6286" stroke-linecap="round" stroke-linejoin="round" stroke-miterlimit="10" d="M8.3,8.3L2.3,6.7" stroke-dasharray="7" stroke-dashoffset="0" transform="translate(-2.3,-2.3)"/>
            <path fill="none" stroke="#EBF2F2" stroke-width="4.6286" stroke-linecap="round" stroke-linejoin="round" stroke-miterlimit="10" d="M9.9,2.3L8.3,8.3" stroke-dashoffset="0" stroke-dasharray="7" transform="translate(-2.3,-2.3)"/>
        </g>
    </g>
    </svg>
